<?xml version="1.0" encoding="utf-8"?>
<!-- Generator: Adobe Illustrator 27.0.0, SVG Export Plug-In . SVG Version: 6.00 Build 0)  -->
<svg version="1.1" id="Layer_1" xmlns="http://www.w3.org/2000/svg" xmlns:xlink="http://www.w3.org/1999/xlink" x="0px" y="0px"
	 viewBox="0 0 500 500" style="enable-background:new 0 0 500 500;" xml:space="preserve">
<style type="text/css">
	.st0{fill:#00AEEF;}
</style>
<path class="st0" d="M291.3,396h-12.8c-33.1,0-54.6-34.9-39.7-64.4L364.8,81c7.5-15,22.9-24.5,39.7-24.5h12.8
	c33.1,0,54.6,34.9,39.7,64.4l-126,250.6C323.5,386.6,308.2,396,291.3,396L291.3,396z"/>
<path class="st0" d="M97.3,396H84.6c-33.1,0-54.6-34.9-39.7-64.4L170.8,81c7.5-15,22.9-24.5,39.7-24.5h12.8
	c33.1,0,54.6,34.9,39.7,64.4l-126,250.6C129.5,386.6,114.2,396,97.3,396L97.3,396z"/>
</svg>
