<?xml version="1.0" encoding="utf-8"?>
<!-- Generator: Adobe Illustrator 27.0.0, SVG Export Plug-In . SVG Version: 6.00 Build 0)  -->
<svg version="1.1" id="Layer_1" xmlns="http://www.w3.org/2000/svg" xmlns:xlink="http://www.w3.org/1999/xlink" x="0px" y="0px"
	 viewBox="0 0 500 500" style="enable-background:new 0 0 500 500;" xml:space="preserve">
<style type="text/css">
	.st0{fill:#FFFFFF;stroke:#000000;stroke-width:26;stroke-miterlimit:10;}
	.st1{fill:none;stroke:#000000;stroke-width:26;stroke-miterlimit:10;}
</style>
<path class="st0" d="M479.63,487.59H20.37c-4.4,0-7.96-3.56-7.96-7.96V20.37c0-4.4,3.56-7.96,7.96-7.96h459.27
	c4.4,0,7.96,3.56,7.96,7.96v459.27C487.59,484.03,484.03,487.59,479.63,487.59z"/>
<path class="st1" d="M427.44,436.32H70.54c-4.4,0-7.96-3.56-7.96-7.96V71.46c0-4.4,3.56-7.96,7.96-7.96h356.89
	c4.4,0,7.96,3.56,7.96,7.96v356.89C435.4,432.75,431.83,436.32,427.44,436.32z"/>
<rect x="-5.64" y="236.76" transform="matrix(-0.7071 -0.7071 0.7071 -0.7071 247.5992 600.9056)" width="507.79" height="24.82"/>
<rect x="-6.05" y="234.15" transform="matrix(-0.7071 0.7071 -0.7071 -0.7071 607.5773 241.4477)" width="519.66" height="24.82"/>
</svg>
