<?xml version="1.0" encoding="UTF-8"?>
<svg id="Layer_1" data-name="Layer 1" xmlns="http://www.w3.org/2000/svg" viewBox="0 0 500 500">
  <defs>
    <style>
      .cls-1 {
        fill: #48bcdd;
      }
    </style>
  </defs>
  <path class="cls-1" d="M45.11,324.71c-3.4-6.19-6.67-12.42-9.54-18.88-.37-.87-.21-.49,.49,1.15-.2-.49-.4-.98-.59-1.47-.29-.74-.57-1.48-.85-2.22-.59-1.6-1.13-3.22-1.63-4.86-1.02-3.37-1.78-6.81-2.28-10.3l.45,3.32c-.59-4.57-.67-9.15-.09-13.72l-.45,3.32c.46-3.24,1.21-6.42,2.29-9.52,.27-.77,.61-1.51,.86-2.28-1.29,3.91-.49,1.16-.03,.2,.7-1.47,1.47-2.91,2.3-4.31s1.73-2.78,2.68-4.12c.36-.5,.74-.99,1.1-1.49-2.44,3.37-.63,.84-.02,.12,2.15-2.54,4.5-4.91,7.01-7.1,.63-.55,1.28-1.08,1.93-1.62,1.64-1.38-2.67,1.97-.03,.03,1.36-1,2.75-1.95,4.18-2.85,2.68-1.7,5.48-3.21,8.36-4.55,.91-.42,3.82-1.35-.07,0,.8-.27,1.57-.63,2.37-.92,1.59-.58,3.19-1.11,4.81-1.58,3.28-.95,6.62-1.63,10-2.1l-3.32,.45c7.97-1.02,15.99-.91,23.95,.14l-3.32-.45c7.08,.99,14.04,2.67,20.83,4.93,3.37,1.12,6.64,2.47,9.95,3.74,.06,.02-2.43-1.06-1.17-.49,.48,.22,.97,.42,1.45,.64,.72,.32,1.44,.65,2.16,.98,1.79,.83,3.57,1.69,5.34,2.58,13.02,6.59,25.13,14.81,36.91,23.38,11.94,8.68,23.6,17.75,35.78,26.1,11.98,8.21,24.54,15.5,37.71,21.66,26.71,12.49,55.05,21,84.14,25.71,15.83,2.57,32.06,4.77,48.13,3.56,16.13-1.22,31.58-5.24,46.45-11.52,12.96-5.47,26.09-12.65,35.1-23.74,5.49-6.75,9.49-14.12,11.91-22.52,1.97-6.85,2.96-14.15,3.17-21.27,.79-25.89-9.98-52.03-28.12-70.4-10.16-10.29-22.59-17.65-36.16-22.49-14.09-5.02-29.86-7.14-44.77-5.92s-30.26,5.39-42.74,14.17c-12.27,8.63-21.65,20.09-26.91,34.2-4.62,12.4-4.62,27.17,.18,39.53,2.75,7.09,6.39,13.44,11.63,19.03s11.37,9.29,18.28,11.98c12.62,4.91,27.33,3.56,39.31-2.44,13.1-6.56,22.07-20.57,21.96-35.3-.06-8.27-3.07-16.01-8.7-22.05-4.47-4.8-13.22-4.85-17.68,0-4.72,5.14-4.76,12.56,0,17.68,.11,.12,.7,.92,.82,.91-.21,0-1.76-2.55-.87-1.07,.47,.78,.89,1.55,1.31,2.35,.65,1.23-.93-2.68-.59-1.32,.1,.38,.25,.76,.36,1.14,.25,.87,.42,1.76,.56,2.65l-.45-3.32c.29,2.26,.27,4.48-.03,6.74l.45-3.32c-.26,1.65-.63,3.28-1.17,4.86-.14,.4-.28,.79-.43,1.18,.83-1.91,1.05-2.43,.64-1.54-.33,.65-.64,1.32-1,1.95-.41,.73-.88,1.41-1.33,2.11-1.16,1.8,2.15-2.49,.06-.14-.92,1.03-1.93,1.94-2.96,2.87-1.55,1.4,2.79-1.96,.2-.18-.48,.33-.97,.65-1.47,.95-.67,.41-1.35,.79-2.04,1.14-1,.51-3.57,1.23,.32-.04-2.84,.93-5.56,1.83-8.54,2.26l3.32-.45c-3.36,.44-6.73,.45-10.1,.04l3.32,.45c-1.97-.27-3.92-.67-5.82-1.24-.79-.24-2-.95-2.81-.97,.19,0,2.87,1.29,1.34,.57-.54-.26-1.08-.51-1.6-.78-.79-.41-1.57-.85-2.32-1.33-.43-.27-.86-.55-1.27-.84s-2-1.49-.26-.14,.19,.12-.2-.21-.78-.69-1.17-1.05c-.76-.71-1.49-1.46-2.2-2.23-.35-.39-.68-.79-1.03-1.18-1.12-1.28,.75,.82,.78,1.06-.09-.67-1.43-1.99-1.8-2.56-1.14-1.77-2.11-3.62-3.01-5.51s.92,2.37,.4,.95c-.18-.49-.38-.98-.56-1.48-.35-.99-.68-2-.96-3.02-.57-2.04-.99-4.11-1.3-6.21l.45,3.32c-.56-4.21-.57-8.44,0-12.65l-.45,3.32c.45-3.03,1.17-6,2.19-8.89,.22-.62,.46-1.24,.69-1.86,.75-2.05-1.38,2.99,.05-.05,.66-1.4,1.38-2.76,2.16-4.1,.72-1.24,1.5-2.45,2.32-3.64,.44-.63,.95-1.23,1.36-1.89-1.93,3.07-.93,1.2-.3,.44,1.99-2.4,4.17-4.64,6.5-6.71,.5-.44,1.01-.88,1.52-1.31,2.58-2.14-1.65,1.16,.1-.11,1.17-.85,2.35-1.69,3.58-2.47,2.67-1.72,5.47-3.17,8.35-4.51,1.22-.54,.93-.42-.88,.35,.47-.19,.94-.38,1.42-.57,.71-.28,1.43-.54,2.15-.79,1.68-.59,3.39-1.12,5.1-1.58,3.45-.94,6.96-1.62,10.5-2.11l-3.32,.45c8.68-1.13,17.43-.99,26.11,.17l-3.32-.45c8.11,1.15,16,3.2,23.61,6.22,1.99,.79-.59-.22-.81-.34,.44,.25,.98,.43,1.44,.64,.96,.44,1.9,.89,2.84,1.37,1.79,.9,3.55,1.87,5.27,2.9,1.28,.77,2.53,1.58,3.76,2.42,.7,.48,1.4,.97,2.08,1.48,.13,.1,1.01,.78,1.02,.77-.08,.06-2.7-2.13-.77-.58,2.56,2.07,4.99,4.3,7.28,6.68,1.11,1.15,2.18,2.33,3.22,3.54,.49,.57,.96,1.14,1.43,1.71,.25,.31,.58,.65,.8,1-.38-.6-1.81-2.38-.59-.76,3.97,5.32,7.2,11.07,9.92,17.11,.63,1.4-1.08-2.65-.51-1.22,.2,.5,.4,.99,.59,1.49,.35,.89,.68,1.79,1,2.7,.6,1.71,1.15,3.44,1.64,5.18,1.04,3.69,1.81,7.45,2.35,11.24l-.45-3.32c.94,6.98,1,14.01,.11,20.99l.45-3.32c-.44,3.22-1.04,6.41-1.9,9.54-.46,1.66-.98,3.31-1.59,4.92-.13,.36-.35,.74-.43,1.11,0,.03,1.09-2.38,.48-1.16-.41,.83-.78,1.68-1.21,2.5-.73,1.4-1.54,2.75-2.42,4.06-.39,.58-.81,1.13-1.2,1.7-.77,1.11,.95-1.31,.9-1.16-.12,.35-.64,.78-.88,1.07-1.95,2.29-4.11,4.41-6.41,6.35-.38,.32-2.66,2.13-.91,.78s-.31,.21-.7,.49c-1.24,.89-2.51,1.74-3.8,2.56-2.59,1.64-5.27,3.13-8,4.51-1.36,.69-2.74,1.35-4.13,1.99-.69,.32-1.38,.63-2.07,.93-.37,.16-.76,.3-1.12,.49l1.49-.62c-.38,.16-.75,.31-1.13,.47-3.27,1.33-6.58,2.55-9.93,3.65-7.61,2.48-15.42,4.28-23.35,5.35l3.32-.45c-13.87,1.77-27.76,.82-41.58-1.01l3.32,.45c-14.77-2-29.42-4.87-43.81-8.78-7.19-1.95-14.3-4.16-21.33-6.63-3.57-1.26-7.11-2.58-10.63-3.98-1.58-.63-3.14-1.27-4.71-1.92s2.34,1.01,.82,.35c-.36-.16-.72-.31-1.08-.46-.96-.41-1.91-.83-2.86-1.26-13.7-6.12-26.83-13.42-39.29-21.79-12.82-8.61-25.01-18.11-37.48-27.2-25.78-18.8-53.59-35.23-85.74-39.45-27.91-3.66-57.74,5.2-76.47,26.96-9.52,11.06-15.53,24.08-16.71,38.7-1.34,16.59,5.08,32.8,12.46,47.29,1.69,3.32,3.47,6.59,5.26,9.85,3.15,5.73,11.53,8.08,17.1,4.48s7.86-10.97,4.48-17.1h0Z"/>
  <path class="cls-1" d="M40.59,425.93c-.48-.43-.9-.89-1.3-1.39l1.95,2.53c-.52-.72-.94-1.47-1.29-2.29l1.26,2.99c-.37-.96-.61-1.94-.76-2.95l.45,3.32c-.13-1.17-.13-2.33,0-3.5l-.45,3.32c.18-1.3,.5-2.55,.98-3.77l-1.26,2.99c.72-1.68,1.65-3.22,2.76-4.67l-1.95,2.53c2.39-3.02,5.34-5.5,8.37-7.85l-2.53,1.95c4.23-3.25,8.74-6.14,13.65-8.26l-2.99,1.26c3.14-1.32,6.4-2.28,9.78-2.75l-3.32,.45c2.91-.37,5.82-.35,8.72,.03l-3.32-.45c3.77,.54,7.4,1.66,10.91,3.12l-2.99-1.26c5.7,2.42,11,5.66,16.24,8.94,5.43,3.4,10.87,6.75,16.54,9.75,12.21,6.47,25.06,11.79,38.07,16.44,12.3,4.4,24.83,8.16,37.38,11.78,13.22,3.82,26.46,7.93,40.07,10.16,14.79,2.43,29.86,3.39,44.76,1.38,13.86-1.86,28.16-6.96,37.54-17.86,4.73-5.5,8.54-11.82,10.3-18.92s1.74-14.83-.89-21.65c-2.82-7.3-7.33-13.85-13.3-18.95s-12.58-9.1-20.13-11.05c-7.02-1.81-15.26-2.08-22.09,.66-4.39,1.76-7.82,3.76-11.43,6.85-2.54,2.17-4.71,4.94-6.45,7.77-4.14,6.74-5.55,15.05-3.62,22.73,2.41,9.6,11.02,17.94,21.35,17.5,3.25-.14,5.91-.89,8.8-2.33s4.77-3.76,6.71-6.31c1.83-2.4,2.02-6.88,1.26-9.63-.8-2.9-3.04-6.04-5.74-7.47-2.9-1.53-6.42-2.3-9.63-1.26l-2.99,1.26c-1.88,1.11-3.37,2.61-4.48,4.48l-.22,.29,1.95-2.53c-.25,.28-.49,.52-.77,.77l2.53-1.95c-.49,.37-1,.66-1.56,.91l2.99-1.26c-.59,.22-1.17,.36-1.78,.45l3.32-.45c-.63,.06-1.23,.05-1.86-.01l3.32,.45c-.62-.1-1.21-.25-1.8-.47l2.99,1.26c-.73-.32-1.39-.72-2.03-1.21l2.53,1.95c-.62-.52-1.17-1.08-1.67-1.71l1.95,2.53c-.65-.88-1.18-1.8-1.62-2.8l1.26,2.99c-.49-1.21-.82-2.46-1.01-3.75l.45,3.32c-.16-1.36-.16-2.71,0-4.08l-.45,3.32c.23-1.61,.66-3.16,1.29-4.66l-1.26,2.99c.71-1.64,1.62-3.15,2.7-4.58l-1.95,2.53c1.2-1.53,2.57-2.89,4.1-4.09l-2.53,1.95c1.45-1.1,2.99-2.02,4.66-2.75l-2.99,1.26c1.74-.73,3.53-1.21,5.4-1.48l-3.32,.45c2.32-.3,4.64-.29,6.96,0l-3.32-.45c2.78,.39,5.45,1.16,8.03,2.24l-2.99-1.26c3.03,1.31,5.84,2.99,8.46,4.99l-2.53-1.95c2.73,2.13,5.19,4.57,7.33,7.29l-1.95-2.53c1.66,2.17,3.07,4.48,4.14,7l-1.26-2.99c.76,1.87,1.3,3.79,1.61,5.8l-.45-3.32c.3,2.28,.29,4.56-.01,6.84l.45-3.32c-.36,2.43-1.02,4.77-1.95,7.04l1.26-2.99c-1.14,2.69-2.61,5.19-4.36,7.52l1.95-2.53c-1.88,2.43-4.03,4.61-6.45,6.51l2.53-1.95c-2.88,2.21-6.06,3.98-9.4,5.41l2.99-1.26c-5.06,2.11-10.4,3.38-15.83,4.13l3.32-.45c-11.72,1.55-23.78,1.04-35.48-.52l3.32,.45c-13.72-1.88-27.01-5.82-40.29-9.63-12.48-3.58-24.94-7.23-37.22-11.46-6.9-2.38-13.74-4.95-20.47-7.78l2.99,1.26c-9.15-3.86-18.09-8.21-26.65-13.26s-15.85-10.39-24.55-14.15c-2.95-1.28-5.91-2.54-9.01-3.43-3.12-.89-6.32-1.33-9.54-1.69-5.48-.61-11.29,.13-16.56,1.7s-10.52,4.04-15.22,7.02-9.23,6.39-13.27,10.18c-4.78,4.49-9.25,10.63-10.31,17.25-.67,4.2-.86,8.06,.29,12.23,1.06,3.86,3.24,7.75,6.23,10.46,2.45,2.22,5.47,3.66,8.84,3.66,3.07,0,6.73-1.36,8.84-3.66s3.81-5.51,3.66-8.84-1.2-6.61-3.66-8.84h0Z"/>
  <path class="cls-1" d="M38.53,191.49c.06-1.66,.2-3.31,.41-4.96l-.45,3.32c.65-4.8,1.93-9.46,3.78-13.93l-1.26,2.99c1.89-4.46,4.32-8.64,7.26-12.49l-1.95,2.53c2.79-3.58,5.97-6.8,9.54-9.6l-2.53,1.95c3.62-2.78,7.57-5.07,11.77-6.86l-2.99,1.26c4.54-1.89,9.28-3.18,14.15-3.85l-3.32,.45c4.88-.64,9.78-.65,14.66-.02l-3.32-.45c4.9,.68,9.62,2.04,14.18,3.96l-2.99-1.26c13.45,5.77,24.51,15.58,36.67,23.5,13.53,8.82,28.94,14.69,44.65,18.25s32.52,5.24,48.9,6.33c17.62,1.17,35.57,1.28,52.83-2.96,15.07-3.71,29.87-11.15,40.7-22.41,11.3-11.75,18.33-28.02,17.52-44.47-.42-8.58-2.67-17.16-7.26-24.49-4.54-7.26-10.77-13.33-17.32-18.76s-13.44-10.43-21.27-13.79c-8.45-3.64-17.36-6.03-26.67-5.56-8.71,.44-17.83,2.8-24.9,8.11-4.12,3.1-7.29,6.3-10.27,10.55-2.36,3.36-4.11,7.33-5.22,11.27-2.46,8.71-1.71,18.74,3.04,26.57,3.17,5.23,7.69,8.97,13.41,11.09s11.98,1.04,16.93-1.83c2.8-1.63,5.11-3.94,6.88-6.64,1.88-2.87,2.46-5.94,2.76-9.29,.27-3.02-1.59-6.77-3.66-8.84s-5.73-3.8-8.84-3.66-6.59,1.21-8.84,3.66-3.35,5.37-3.66,8.84l-.03,.36,.45-3.32c-.07,.48-.19,.92-.35,1.38l1.26-2.99c-.24,.55-.52,1.04-.88,1.52l1.95-2.53c-.39,.47-.8,.88-1.27,1.26l2.53-1.95c-.6,.44-1.22,.8-1.9,1.1l2.99-1.26c-.7,.28-1.4,.47-2.15,.59l3.32-.45c-.75,.09-1.47,.1-2.22,.01l3.32,.45c-.81-.13-1.57-.37-2.33-.69l2.99,1.26c-.77-.36-1.48-.79-2.17-1.3l2.53,1.95c-.9-.72-1.69-1.53-2.4-2.44l1.95,2.53c-.87-1.17-1.58-2.42-2.16-3.77l1.26,2.99c-.68-1.69-1.13-3.42-1.37-5.22l.45,3.32c-.22-1.92-.21-3.82,.02-5.74l-.45,3.32c.32-2.35,.96-4.61,1.86-6.79l-1.26,2.99c.95-2.2,2.15-4.25,3.6-6.15l-1.95,2.53c1.47-1.89,3.15-3.57,5.04-5.05l-2.53,1.95c1.95-1.47,4.06-2.67,6.3-3.65l-2.99,1.26c2.89-1.21,5.9-2.01,9-2.45l-3.32,.45c3.77-.49,7.56-.44,11.33,.06l-3.32-.45c4.17,.6,8.19,1.78,12.09,3.39l-2.99-1.26c5.84,2.48,11.2,5.88,16.22,9.74l-2.53-1.95c5.71,4.44,11.3,9.35,15.77,15.07l-1.95-2.53c1.95,2.55,3.61,5.27,4.89,8.21l-1.26-2.99c1.32,3.14,2.2,6.42,2.68,9.79l-.45-3.32c.5,3.85,.48,7.72-.01,11.57l.45-3.32c-.59,4.34-1.76,8.55-3.46,12.59l1.26-2.99c-1.62,3.75-3.68,7.26-6.16,10.5l1.95-2.53c-3.01,3.87-6.5,7.3-10.37,10.31l2.53-1.95c-4.89,3.76-10.27,6.79-15.94,9.19l2.99-1.26c-7.65,3.2-15.69,5.17-23.9,6.28l3.32-.45c-11.23,1.46-22.57,1.35-33.85,.72-10.49-.59-20.98-1.44-31.4-2.84l3.32,.45c-14.51-1.97-28.92-5.13-42.47-10.79l2.99,1.26c-10.98-4.64-20.61-11.2-30.23-18.14-10.07-7.26-20.34-14.11-32.25-17.98-24.73-8.05-54.45,.17-70.85,20.55-2.47,3.07-4.84,6.21-6.81,9.62s-3.55,7.07-4.97,10.74c-2.54,6.58-3.78,13.72-4.05,20.74-.25,6.54,5.93,12.79,12.5,12.5,6.99-.31,12.23-5.49,12.5-12.5h0Z"/>
</svg>