<?xml version="1.0" encoding="UTF-8"?>
<svg id="Layer_1" data-name="Layer 1" xmlns="http://www.w3.org/2000/svg" viewBox="0 0 1000 1000">
  <defs>
    <style>
      .cls-1 {
        fill: #676767;
      }
    </style>
  </defs>
  <path class="cls-1" d="M634.87,219.6c-28.46-6.33-58.53-3.6-87.14,8.22-37.81,15.62-68.57,45.39-86.61,83.81-18.04,38.42-21.28,81.1-9.14,120.17,9.19,29.57,26.32,54.45,49.38,72.3,12.69,9.82,31.2,5.42,38.02-9.11h0c4.94-10.52,2.06-23.16-7.15-30.26-15.11-11.66-26.4-28.11-32.51-47.77-8.43-27.13-6.07-56.99,6.65-84.09,12.72-27.1,34.18-48,60.44-58.85,19.03-7.86,38.89-9.69,57.52-5.52,11.34,2.54,22.91-3.31,27.84-13.84h0c6.82-14.54-1.64-31.59-17.31-35.08Z"/>
  <path class="cls-1" d="M798.71,199.42c-49.78-49.78-115.96-77.19-186.35-77.19s-136.57,27.41-186.35,77.19-77.19,115.96-77.19,186.35c0,51.23,14.53,100.21,41.62,142.28L93.14,825.34c-19.07,19.07-19.07,50,0,69.07l16.35,16.35c19.07,19.07,50,19.07,69.07,0l298.64-298.64c40.43,24.24,86.8,37.18,135.17,37.18,70.39,0,136.58-27.41,186.35-77.19,49.78-49.78,77.19-115.96,77.19-186.35s-27.41-136.58-77.19-186.35Zm-186.35,369.89c-101.2,0-183.54-82.34-183.54-183.54s82.34-183.54,183.54-183.54,183.54,82.34,183.54,183.54-82.34,183.54-183.54,183.54Z"/>
</svg>