<?xml version="1.0" encoding="UTF-8"?>
<svg id="Layer_1" data-name="Layer 1" xmlns="http://www.w3.org/2000/svg" viewBox="0 0 500 500">
  <defs>
    <style>
      .cls-1 {
        fill: #f0f525;
      }
    </style>
  </defs>
  <path class="cls-1" d="M365.22,450.28c1.31,0,2.38-1.05,2.38-2.35,0,0,0-.02,0-.02,0-63.1-52.65-114.25-117.6-114.25s-117.6,51.15-117.6,114.25c0,0,0,.02,0,.02,0,1.3,1.07,2.35,2.38,2.35h230.44Z"/>
  <path class="cls-1" d="M278.09,96.08v170.82c0,12.66-10.26,22.92-22.92,22.92h-15.54c-12.66,0-22.92-10.26-22.92-22.92V96.08h-15.49c-5.99,0-9.09-7.14-5-11.52l46.57-49.87c2.49-2.67,6.73-2.67,9.22,0l46.57,49.87c4.09,4.37,.98,11.52-5,11.52h-15.49Z"/>
  <rect class="cls-1" x="91.64" y="251.66" width="28.64" height="100.97" rx="14.2" ry="14.2" transform="translate(395.24 439.4) rotate(134.71)"/>
  <rect class="cls-1" x="361.58" y="246.92" width="28.64" height="100.97" rx="14.2" ry="14.2" transform="translate(338.94 -180.49) rotate(47.23)"/>
  <rect class="cls-1" x="435.59" y="385.68" width="28.64" height="100.16" rx="13.58" ry="13.58" transform="translate(883.29 -16.45) rotate(89.7)"/>
  <rect class="cls-1" x="35.76" y="385.68" width="28.64" height="100.16" rx="13.58" ry="13.58" transform="translate(485.57 383.37) rotate(89.7)"/>
</svg>