<?xml version="1.0" encoding="UTF-8"?>
<svg id="Layer_1" data-name="Layer 1" xmlns="http://www.w3.org/2000/svg" viewBox="0 0 1000 1000">
  <defs>
    <style>
      .cls-1 {
        fill: #6ad7ff;
      }
    </style>
  </defs>
  <path class="cls-1" d="M977.27,371.46c-.19-.84-.44-1.81-.71-2.64h0c-.27-.84-.54-1.93-.88-2.72-1.38-3.24-2.63-6.01-5.09-8.61l-88.62-93.87c-6.99-7.41-18.67-7.75-26.08-.75l-12.93,12.21c-7.41,6.99-7.75,18.67-.75,26.08l59.65,63.18-77.52,25.19-94.41-112.03c-6.57-7.79-18.21-8.79-26-2.22l-13.6,11.46c-7.79,6.57-8.78,18.21-2.22,26l80.08,95.03-76.04,24.71-70.4-63.94c-1.13-1.34-2.4-2.47-3.78-3.4-1.84-4.32-5.32-7.94-10.02-9.85l-87-47.19v-79.95l115.13,46.8c9.44,3.84,20.2-.7,24.04-10.14l6.7-16.48c3.84-9.44-.7-20.2-10.14-24.04l-135.72-55.17V87.6l78.52,37.2c9.21,4.36,20.21,.44,24.57-8.77l7.62-16.07c4.36-9.21,.44-20.21-8.77-24.57l-116.66-55.27c-3.24-1.53-7.03-1.81-9.89-2.04-.86-.08-1.85-.14-2.73-.14h0c-.88,0-2-.08-2.86,0-3.5,.31-6.53,.64-9.76,2.18l-116.66,55.27c-9.21,4.36-13.14,15.36-8.77,24.57l7.62,16.07c4.36,9.21,15.36,13.14,24.57,8.77l78.52-37.2v81.51l-135.72,55.17c-9.44,3.84-13.98,14.6-10.14,24.04l6.7,16.48c3.84,9.44,14.6,13.98,24.04,10.14l115.13-46.8v79.95l-82.57,47.19c-1.62,.66-3.09,1.52-4.4,2.55-4.68,.42-9.2,2.61-12.46,6.49l-71.77,68.16-76.04-24.71,80.08-95.03c6.57-7.79,5.57-19.43-2.22-26l-13.6-11.46c-7.79-6.57-19.43-5.57-26,2.22l-94.41,112.03-77.52-25.19,59.64-63.18c6.99-7.41,6.66-19.09-.75-26.08l-12.93-12.21c-7.41-6.99-19.09-6.66-26.08,.75L16.63,357.49c-2.46,2.6-3.9,6.13-4.99,8.77-.34,.79-.7,1.72-.98,2.56h0c-.27,.84-.69,1.87-.88,2.72-.78,3.43-1.41,6.4-.95,9.96l16.52,128.03c1.3,10.11,10.55,17.24,20.66,15.94l17.64-2.28c10.11-1.3,17.24-10.55,15.94-20.66l-11.12-86.17,77.52,25.19,10.53,146.13c.73,10.16,9.56,17.81,19.73,17.08l17.74-1.28c10.16-.73,17.81-9.56,17.08-19.73l-8.93-123.95,76.04,24.71,19.37,93.11c.13,1.74,.49,3.41,1.06,4.97-1.05,4.58-.36,9.55,2.32,13.86l42.64,89.32-47,64.68-65.63-105.53c-5.38-8.65-16.76-11.3-25.41-5.92l-15.1,9.39c-8.65,5.38-11.3,16.76-5.92,25.41l77.37,124.41-47.91,65.94-41.66-76.25c-4.89-8.94-16.09-12.23-25.04-7.35l-15.61,8.53c-8.94,4.88-12.23,16.09-7.35,25.04l61.89,113.29c1.72,3.14,4.62,5.6,6.8,7.46,.65,.57,1.42,1.2,2.13,1.72h0c.71,.52,1.57,1.24,2.31,1.68,3.02,1.8,5.66,3.32,9.18,3.98l126.87,23.85c10.01,1.88,19.66-4.71,21.54-14.72l3.29-17.48c1.88-10.01-4.71-19.66-14.72-21.54l-85.39-16.05,47.91-65.94,142.23,35.14c9.89,2.44,19.89-3.59,22.34-13.49l4.27-17.27c2.44-9.89-3.59-19.89-13.49-22.34l-120.65-29.81,47-64.68,94.54,10.35c1.7,.42,3.39,.58,5.06,.53,4.03,2.41,8.98,3.29,13.89,2.08l98.12-12.96,47,64.68-120.65,29.81c-9.89,2.44-15.93,12.44-13.49,22.34l4.27,17.27c2.44,9.89,12.44,15.93,22.34,13.49l142.23-35.14,47.91,65.94-85.39,16.05c-10.01,1.88-16.61,11.53-14.72,21.54l3.29,17.48c1.88,10.01,11.53,16.61,21.54,14.72l126.87-23.85c3.52-.66,6.75-2.67,9.2-4.16,.74-.44,1.58-.98,2.29-1.5h0c.71-.52,1.66-1.11,2.31-1.68,2.65-2.31,4.9-4.35,6.62-7.5l61.89-113.29c4.88-8.94,1.6-20.15-7.35-25.04l-15.61-8.53c-8.94-4.88-20.15-1.6-25.04,7.35l-41.66,76.25-47.91-65.94,77.37-124.41c5.38-8.65,2.73-20.03-5.92-25.41l-15.1-9.39c-8.65-5.38-20.03-2.73-25.41,5.92l-65.63,105.53-47-64.68,39.06-86.71c.92-1.48,1.6-3.05,2.06-4.65,3.54-3.09,5.91-7.52,6.27-12.57l18-97.33,76.04-24.71-8.93,123.95c-.73,10.16,6.91,19,17.08,19.73l17.74,1.28c10.16,.73,19-6.91,19.73-17.08l10.53-146.13,77.52-25.19-11.12,86.17c-1.3,10.11,5.83,19.35,15.94,20.66l17.64,2.28c10.11,1.3,19.35-5.83,20.66-15.94l16.52-128.03c.46-3.55-.45-7.25-1.12-10.03Zm-399.68,28.78c.63,1.24,1.41,2.43,2.34,3.54l56.07,46.94-85.43,.21-29.63-83.81,56.64,33.12Zm-177.39,6.84c1.37-.22,2.74-.59,4.09-1.13l61.97-38.82-26.2,81.32-88.86,2.28,49-43.64Zm-21.95,230.9l-26.36-60.08c.22-1.37,.29-2.79,.18-4.24l-17.77-70.94,69.24,50.04-25.29,85.22Zm121.17,38.65c-1.24-.63-2.56-1.14-3.97-1.48l-72.96-5.02,68.99-50.39,73.23,50.39-65.29,6.5Zm109.53-38.65l-26.6-81.18,70.55-54.07-13.99,64.1c-.98,.98-1.87,2.09-2.64,3.32l-27.32,67.84Z"/>
</svg>